<mxfile host="app.diagrams.net" modified="2021-01-14T15:08:46.371Z" agent="5.0 (Windows NT 10.0; Win64; x64) AppleWebKit/537.36 (KHTML, like Gecko) Chrome/87.0.4280.141 Safari/537.36" etag="4TvSlV4dCx6vN1KZ2kVO" version="14.2.2" type="github">
  <diagram id="b_So1LiTozSjP1p123YY" name="Page-1">
    <mxGraphModel dx="2031" dy="2303" grid="1" gridSize="10" guides="1" tooltips="1" connect="1" arrows="1" fold="1" page="1" pageScale="1" pageWidth="827" pageHeight="1169" math="0" shadow="0">
      <root>
        <mxCell id="0" />
        <mxCell id="1" parent="0" />
        <mxCell id="PVWQb8UEWzLVWvOHxIEB-396" value="" style="rounded=0;whiteSpace=wrap;html=1;strokeWidth=3;fontFamily=Comic Sans MS;fontSize=17;align=left;dashed=1;dashPattern=1 1;fillColor=#1ba1e2;strokeColor=#006EAF;fontColor=#ffffff;" vertex="1" parent="1">
          <mxGeometry x="5" y="-80" width="1400" height="1060" as="geometry" />
        </mxCell>
        <mxCell id="PVWQb8UEWzLVWvOHxIEB-366" value="" style="rounded=0;whiteSpace=wrap;html=1;dashed=1;strokeWidth=3;fontFamily=Comic Sans MS;fontSize=17;align=left;" vertex="1" parent="1">
          <mxGeometry x="110" y="150" width="320" height="740" as="geometry" />
        </mxCell>
        <mxCell id="PVWQb8UEWzLVWvOHxIEB-365" value="" style="rounded=0;whiteSpace=wrap;html=1;dashed=1;strokeWidth=3;fontFamily=Comic Sans MS;fontSize=17;align=left;" vertex="1" parent="1">
          <mxGeometry x="470" y="150" width="830" height="740" as="geometry" />
        </mxCell>
        <mxCell id="PVWQb8UEWzLVWvOHxIEB-42" value="" style="rounded=0;whiteSpace=wrap;html=1;dashed=1;align=left;strokeWidth=3;strokeColor=#6E6E6E;" vertex="1" parent="1">
          <mxGeometry x="110" y="10" width="1190" height="90" as="geometry" />
        </mxCell>
        <mxCell id="PVWQb8UEWzLVWvOHxIEB-43" value="&lt;b&gt;&lt;font style=&quot;font-size: 20px&quot;&gt;Core&lt;/font&gt;&lt;/b&gt;" style="text;html=1;strokeColor=none;fillColor=none;align=center;verticalAlign=middle;whiteSpace=wrap;rounded=0;dashed=1;fontSize=17;fontFamily=Comic Sans MS;" vertex="1" parent="1">
          <mxGeometry x="150" y="30" width="40" height="20" as="geometry" />
        </mxCell>
        <mxCell id="PVWQb8UEWzLVWvOHxIEB-289" value="" style="group" vertex="1" connectable="0" parent="1">
          <mxGeometry x="320" y="30" width="140" height="45" as="geometry" />
        </mxCell>
        <mxCell id="PVWQb8UEWzLVWvOHxIEB-95" value="" style="shape=process;whiteSpace=wrap;html=1;backgroundOutline=1;dashed=1;strokeColor=#d6b656;fillColor=#fff2cc;align=left;gradientColor=#ffd966;" vertex="1" parent="PVWQb8UEWzLVWvOHxIEB-289">
          <mxGeometry x="-20" width="160" height="45" as="geometry" />
        </mxCell>
        <mxCell id="PVWQb8UEWzLVWvOHxIEB-47" value="Monitoring" style="text;html=1;strokeColor=none;fillColor=none;align=center;verticalAlign=middle;whiteSpace=wrap;rounded=0;dashed=1;fontFamily=Comic Sans MS;fontSize=13;" vertex="1" parent="PVWQb8UEWzLVWvOHxIEB-289">
          <mxGeometry x="40" y="12.5" width="40" height="20" as="geometry" />
        </mxCell>
        <mxCell id="PVWQb8UEWzLVWvOHxIEB-290" value="" style="group" vertex="1" connectable="0" parent="1">
          <mxGeometry x="620" y="30" width="170" height="45" as="geometry" />
        </mxCell>
        <mxCell id="PVWQb8UEWzLVWvOHxIEB-96" value="" style="shape=process;whiteSpace=wrap;html=1;backgroundOutline=1;dashed=1;strokeColor=#82b366;fillColor=#d5e8d4;align=left;gradientColor=#97d077;" vertex="1" parent="PVWQb8UEWzLVWvOHxIEB-290">
          <mxGeometry width="160" height="45" as="geometry" />
        </mxCell>
        <mxCell id="PVWQb8UEWzLVWvOHxIEB-46" value="Configuration" style="text;html=1;strokeColor=none;fillColor=none;align=center;verticalAlign=middle;whiteSpace=wrap;rounded=0;dashed=1;fontFamily=Comic Sans MS;fontSize=13;" vertex="1" parent="PVWQb8UEWzLVWvOHxIEB-290">
          <mxGeometry x="60" y="12.5" width="40" height="20" as="geometry" />
        </mxCell>
        <mxCell id="PVWQb8UEWzLVWvOHxIEB-291" value="" style="group" vertex="1" connectable="0" parent="1">
          <mxGeometry x="960" y="30" width="130" height="45" as="geometry" />
        </mxCell>
        <mxCell id="PVWQb8UEWzLVWvOHxIEB-44" value="" style="shape=process;whiteSpace=wrap;html=1;backgroundOutline=1;dashed=1;strokeColor=#996185;fillColor=#e6d0de;align=left;gradientColor=#d5739d;" vertex="1" parent="PVWQb8UEWzLVWvOHxIEB-291">
          <mxGeometry x="-30" width="160" height="45" as="geometry" />
        </mxCell>
        <mxCell id="PVWQb8UEWzLVWvOHxIEB-45" value="Logging&lt;br style=&quot;font-size: 13px;&quot;&gt;" style="text;html=1;strokeColor=none;fillColor=none;align=center;verticalAlign=middle;whiteSpace=wrap;rounded=0;dashed=1;fontFamily=Comic Sans MS;fontSize=13;" vertex="1" parent="PVWQb8UEWzLVWvOHxIEB-291">
          <mxGeometry x="30" y="12.5" width="40" height="20" as="geometry" />
        </mxCell>
        <mxCell id="PVWQb8UEWzLVWvOHxIEB-256" value="" style="group;strokeWidth=3;fontColor=#3B6FFF;" vertex="1" connectable="0" parent="1">
          <mxGeometry x="530" y="200" width="400" height="160" as="geometry" />
        </mxCell>
        <mxCell id="PVWQb8UEWzLVWvOHxIEB-114" value="" style="rounded=0;whiteSpace=wrap;html=1;strokeColor=#3333FF;dashed=1;strokeWidth=2;" vertex="1" parent="PVWQb8UEWzLVWvOHxIEB-256">
          <mxGeometry x="-20.51" width="420.51" height="140" as="geometry" />
        </mxCell>
        <mxCell id="PVWQb8UEWzLVWvOHxIEB-248" value="&lt;b&gt;&lt;font&gt;&lt;font face=&quot;Comic Sans MS&quot; style=&quot;font-size: 20px&quot;&gt;Storage&lt;/font&gt;&lt;br style=&quot;font-size: 17px&quot;&gt;&lt;/font&gt;&lt;/b&gt;" style="text;html=1;strokeColor=none;fillColor=none;align=center;verticalAlign=middle;whiteSpace=wrap;rounded=0;dashed=1;fontSize=17;" vertex="1" parent="PVWQb8UEWzLVWvOHxIEB-256">
          <mxGeometry x="-0.0007692307692330758" y="9.411764705882353" width="41.02564102564102" height="18.823529411764707" as="geometry" />
        </mxCell>
        <mxCell id="PVWQb8UEWzLVWvOHxIEB-343" value="" style="group;strokeWidth=3;" vertex="1" connectable="0" parent="PVWQb8UEWzLVWvOHxIEB-256">
          <mxGeometry x="30" y="32.94" width="304.26" height="87.06" as="geometry" />
        </mxCell>
        <mxCell id="PVWQb8UEWzLVWvOHxIEB-149" value="" style="rounded=0;whiteSpace=wrap;html=1;strokeColor=#36393d;strokeWidth=1;fillColor=#eeeeee;fontSize=15;align=left;" vertex="1" parent="PVWQb8UEWzLVWvOHxIEB-343">
          <mxGeometry width="304.26" height="87.06" as="geometry" />
        </mxCell>
        <mxCell id="PVWQb8UEWzLVWvOHxIEB-342" value="" style="group" vertex="1" connectable="0" parent="PVWQb8UEWzLVWvOHxIEB-343">
          <mxGeometry x="104.25538461538463" y="17.41006533333335" width="92.30769230769226" height="52.236" as="geometry" />
        </mxCell>
        <mxCell id="PVWQb8UEWzLVWvOHxIEB-146" value="" style="shape=datastore;whiteSpace=wrap;html=1;strokeColor=#82b366;strokeWidth=1;fillColor=#d5e8d4;gradientColor=#97d077;fontSize=15;align=left;" vertex="1" parent="PVWQb8UEWzLVWvOHxIEB-342">
          <mxGeometry width="92.30769230769229" height="52.236" as="geometry" />
        </mxCell>
        <mxCell id="PVWQb8UEWzLVWvOHxIEB-147" value="&lt;i&gt;Repo&lt;/i&gt;" style="text;html=1;strokeColor=#82b366;fillColor=#d5e8d4;align=center;verticalAlign=middle;whiteSpace=wrap;rounded=0;fontSize=15;gradientColor=#97d077;fontFamily=Comic Sans MS;" vertex="1" parent="PVWQb8UEWzLVWvOHxIEB-342">
          <mxGeometry x="27.26538461538462" y="28.34673600000003" width="32.82051282051282" height="10.834133333333334" as="geometry" />
        </mxCell>
        <mxCell id="PVWQb8UEWzLVWvOHxIEB-337" value="" style="group;fontColor=#3B6FFF;" vertex="1" connectable="0" parent="1">
          <mxGeometry x="1000" y="200" width="210" height="650" as="geometry" />
        </mxCell>
        <mxCell id="PVWQb8UEWzLVWvOHxIEB-2" value="" style="rounded=0;whiteSpace=wrap;html=1;strokeColor=#3333FF;dashed=1;strokeWidth=2;" vertex="1" parent="PVWQb8UEWzLVWvOHxIEB-337">
          <mxGeometry width="210" height="650" as="geometry" />
        </mxCell>
        <mxCell id="PVWQb8UEWzLVWvOHxIEB-1" value="" style="rounded=0;whiteSpace=wrap;html=1;fillColor=#d5e8d4;strokeColor=#82b366;align=left;strokeWidth=3;" vertex="1" parent="PVWQb8UEWzLVWvOHxIEB-337">
          <mxGeometry x="21" y="60" width="170" height="560" as="geometry" />
        </mxCell>
        <mxCell id="PVWQb8UEWzLVWvOHxIEB-110" value="" style="rounded=1;whiteSpace=wrap;html=1;dashed=1;strokeColor=#d6b656;fillColor=#fff2cc;align=left;gradientColor=#ffd966;" vertex="1" parent="PVWQb8UEWzLVWvOHxIEB-337">
          <mxGeometry x="40" y="540" width="120" height="60" as="geometry" />
        </mxCell>
        <mxCell id="PVWQb8UEWzLVWvOHxIEB-41" value="&lt;b style=&quot;font-size: 20px&quot;&gt;&lt;font style=&quot;font-size: 20px&quot;&gt;Controller&lt;br&gt;API&lt;br style=&quot;font-size: 17px&quot;&gt;&lt;/font&gt;&lt;/b&gt;" style="text;html=1;strokeColor=none;fillColor=none;align=center;verticalAlign=middle;whiteSpace=wrap;rounded=0;dashed=1;fontSize=17;fontFamily=Comic Sans MS;" vertex="1" parent="PVWQb8UEWzLVWvOHxIEB-337">
          <mxGeometry x="31" y="20" width="40" height="20" as="geometry" />
        </mxCell>
        <mxCell id="PVWQb8UEWzLVWvOHxIEB-77" value="" style="line;strokeWidth=2;direction=south;html=1;perimeter=backbonePerimeter;points=[];outlineConnect=0;dashed=1;fillColor=#FF9999;align=left;dashPattern=1 4;" vertex="1" parent="PVWQb8UEWzLVWvOHxIEB-337">
          <mxGeometry x="103" y="142" width="4" height="135" as="geometry" />
        </mxCell>
        <mxCell id="PVWQb8UEWzLVWvOHxIEB-108" value="" style="group;fontSize=14;" vertex="1" connectable="0" parent="PVWQb8UEWzLVWvOHxIEB-337">
          <mxGeometry x="40" y="520" width="120" height="60" as="geometry" />
        </mxCell>
        <mxCell id="PVWQb8UEWzLVWvOHxIEB-109" value="" style="group" vertex="1" connectable="0" parent="PVWQb8UEWzLVWvOHxIEB-108">
          <mxGeometry width="120" height="60" as="geometry" />
        </mxCell>
        <mxCell id="PVWQb8UEWzLVWvOHxIEB-112" value="" style="group" vertex="1" connectable="0" parent="PVWQb8UEWzLVWvOHxIEB-109">
          <mxGeometry width="120" height="60" as="geometry" />
        </mxCell>
        <mxCell id="PVWQb8UEWzLVWvOHxIEB-261" value="" style="group" vertex="1" connectable="0" parent="PVWQb8UEWzLVWvOHxIEB-112">
          <mxGeometry width="120" height="60" as="geometry" />
        </mxCell>
        <mxCell id="PVWQb8UEWzLVWvOHxIEB-52" value="&lt;font style=&quot;font-size: 15px&quot; face=&quot;Comic Sans MS&quot;&gt;UIWI&lt;br&gt;MAB&lt;br&gt;API&lt;/font&gt;" style="text;html=1;strokeColor=none;fillColor=none;align=center;verticalAlign=middle;whiteSpace=wrap;rounded=0;dashed=1;" vertex="1" parent="PVWQb8UEWzLVWvOHxIEB-261">
          <mxGeometry x="40" y="20" width="40" height="55" as="geometry" />
        </mxCell>
        <mxCell id="PVWQb8UEWzLVWvOHxIEB-179" value="" style="group;fontSize=14;" vertex="1" connectable="0" parent="PVWQb8UEWzLVWvOHxIEB-337">
          <mxGeometry x="46" y="286.25" width="120" height="60" as="geometry" />
        </mxCell>
        <mxCell id="PVWQb8UEWzLVWvOHxIEB-180" value="" style="group" vertex="1" connectable="0" parent="PVWQb8UEWzLVWvOHxIEB-179">
          <mxGeometry width="120" height="60" as="geometry" />
        </mxCell>
        <mxCell id="PVWQb8UEWzLVWvOHxIEB-181" value="" style="group" vertex="1" connectable="0" parent="PVWQb8UEWzLVWvOHxIEB-180">
          <mxGeometry width="120" height="60" as="geometry" />
        </mxCell>
        <mxCell id="PVWQb8UEWzLVWvOHxIEB-277" value="" style="group" vertex="1" connectable="0" parent="PVWQb8UEWzLVWvOHxIEB-181">
          <mxGeometry width="120" height="60" as="geometry" />
        </mxCell>
        <mxCell id="PVWQb8UEWzLVWvOHxIEB-182" value="" style="rounded=1;whiteSpace=wrap;html=1;dashed=1;strokeColor=#d6b656;fillColor=#fff2cc;align=left;gradientColor=#ffd966;" vertex="1" parent="PVWQb8UEWzLVWvOHxIEB-277">
          <mxGeometry width="120" height="60" as="geometry" />
        </mxCell>
        <mxCell id="PVWQb8UEWzLVWvOHxIEB-183" value="&lt;font style=&quot;font-size: 15px&quot; face=&quot;Comic Sans MS&quot;&gt;User Profile&lt;/font&gt;" style="text;html=1;strokeColor=none;fillColor=none;align=center;verticalAlign=middle;whiteSpace=wrap;rounded=0;dashed=1;" vertex="1" parent="PVWQb8UEWzLVWvOHxIEB-277">
          <mxGeometry x="38" y="2.5" width="40" height="55" as="geometry" />
        </mxCell>
        <mxCell id="PVWQb8UEWzLVWvOHxIEB-184" value="" style="group;fontSize=14;" vertex="1" connectable="0" parent="PVWQb8UEWzLVWvOHxIEB-337">
          <mxGeometry x="46" y="73.75" width="120" height="60" as="geometry" />
        </mxCell>
        <mxCell id="PVWQb8UEWzLVWvOHxIEB-185" value="" style="group" vertex="1" connectable="0" parent="PVWQb8UEWzLVWvOHxIEB-184">
          <mxGeometry width="120" height="60" as="geometry" />
        </mxCell>
        <mxCell id="PVWQb8UEWzLVWvOHxIEB-186" value="" style="group" vertex="1" connectable="0" parent="PVWQb8UEWzLVWvOHxIEB-185">
          <mxGeometry width="120" height="60" as="geometry" />
        </mxCell>
        <mxCell id="PVWQb8UEWzLVWvOHxIEB-276" value="" style="group" vertex="1" connectable="0" parent="PVWQb8UEWzLVWvOHxIEB-186">
          <mxGeometry width="120" height="60" as="geometry" />
        </mxCell>
        <mxCell id="PVWQb8UEWzLVWvOHxIEB-187" value="" style="rounded=1;whiteSpace=wrap;html=1;dashed=1;strokeColor=#d6b656;fillColor=#fff2cc;align=left;gradientColor=#ffd966;" vertex="1" parent="PVWQb8UEWzLVWvOHxIEB-276">
          <mxGeometry width="120" height="60" as="geometry" />
        </mxCell>
        <mxCell id="PVWQb8UEWzLVWvOHxIEB-188" value="&lt;font face=&quot;Comic Sans MS&quot; style=&quot;font-size: 15px&quot;&gt;Other API&lt;/font&gt;" style="text;html=1;strokeColor=none;fillColor=none;align=center;verticalAlign=middle;whiteSpace=wrap;rounded=0;dashed=1;" vertex="1" parent="PVWQb8UEWzLVWvOHxIEB-276">
          <mxGeometry x="38" y="2.5" width="40" height="55" as="geometry" />
        </mxCell>
        <mxCell id="PVWQb8UEWzLVWvOHxIEB-282" value="" style="group;fontSize=14;" vertex="1" connectable="0" parent="PVWQb8UEWzLVWvOHxIEB-337">
          <mxGeometry x="45" y="370" width="120" height="60" as="geometry" />
        </mxCell>
        <mxCell id="PVWQb8UEWzLVWvOHxIEB-283" value="" style="group" vertex="1" connectable="0" parent="PVWQb8UEWzLVWvOHxIEB-282">
          <mxGeometry width="120" height="60" as="geometry" />
        </mxCell>
        <mxCell id="PVWQb8UEWzLVWvOHxIEB-284" value="" style="group" vertex="1" connectable="0" parent="PVWQb8UEWzLVWvOHxIEB-283">
          <mxGeometry width="120" height="60" as="geometry" />
        </mxCell>
        <mxCell id="PVWQb8UEWzLVWvOHxIEB-285" value="" style="group" vertex="1" connectable="0" parent="PVWQb8UEWzLVWvOHxIEB-284">
          <mxGeometry width="120" height="60" as="geometry" />
        </mxCell>
        <mxCell id="PVWQb8UEWzLVWvOHxIEB-286" value="" style="rounded=1;whiteSpace=wrap;html=1;dashed=1;strokeColor=#d6b656;fillColor=#fff2cc;align=left;gradientColor=#ffd966;" vertex="1" parent="PVWQb8UEWzLVWvOHxIEB-285">
          <mxGeometry width="120" height="60" as="geometry" />
        </mxCell>
        <mxCell id="PVWQb8UEWzLVWvOHxIEB-287" value="&lt;font style=&quot;font-size: 15px&quot; face=&quot;Comic Sans MS&quot;&gt;Widget&lt;br&gt;Builder API&lt;/font&gt;" style="text;html=1;strokeColor=none;fillColor=none;align=center;verticalAlign=middle;whiteSpace=wrap;rounded=0;dashed=1;" vertex="1" parent="PVWQb8UEWzLVWvOHxIEB-285">
          <mxGeometry x="38" y="2.5" width="40" height="55" as="geometry" />
        </mxCell>
        <mxCell id="PVWQb8UEWzLVWvOHxIEB-339" value="" style="group" vertex="1" connectable="0" parent="1">
          <mxGeometry x="1500" y="200" width="264" height="700" as="geometry" />
        </mxCell>
        <mxCell id="PVWQb8UEWzLVWvOHxIEB-400" value="" style="rounded=0;whiteSpace=wrap;html=1;dashed=1;dashPattern=1 1;strokeWidth=3;fontFamily=Comic Sans MS;fontSize=20;align=left;fillColor=#a20025;strokeColor=#6F0000;fontColor=#ffffff;" vertex="1" parent="PVWQb8UEWzLVWvOHxIEB-339">
          <mxGeometry y="-80" width="180" height="780" as="geometry" />
        </mxCell>
        <mxCell id="PVWQb8UEWzLVWvOHxIEB-3" value="" style="rounded=0;whiteSpace=wrap;html=1;dashed=1;strokeColor=#FF3333;strokeWidth=2;" vertex="1" parent="PVWQb8UEWzLVWvOHxIEB-339">
          <mxGeometry x="20" width="140" height="650" as="geometry" />
        </mxCell>
        <mxCell id="PVWQb8UEWzLVWvOHxIEB-312" value="" style="group" vertex="1" connectable="0" parent="PVWQb8UEWzLVWvOHxIEB-339">
          <mxGeometry x="74" y="218.359375" width="190" height="132.03125" as="geometry" />
        </mxCell>
        <mxCell id="PVWQb8UEWzLVWvOHxIEB-24" value="" style="group" vertex="1" connectable="0" parent="PVWQb8UEWzLVWvOHxIEB-312">
          <mxGeometry y="81.25" width="20" height="30.46875" as="geometry" />
        </mxCell>
        <mxCell id="PVWQb8UEWzLVWvOHxIEB-60" value="" style="group;fontSize=14;" vertex="1" connectable="0" parent="PVWQb8UEWzLVWvOHxIEB-24">
          <mxGeometry y="16.61931818181818" width="20" height="16.61931818181818" as="geometry" />
        </mxCell>
        <mxCell id="PVWQb8UEWzLVWvOHxIEB-327" value="" style="group" vertex="1" connectable="0" parent="PVWQb8UEWzLVWvOHxIEB-339">
          <mxGeometry y="289.453125" width="120" height="60.9375" as="geometry" />
        </mxCell>
        <mxCell id="PVWQb8UEWzLVWvOHxIEB-310" value="" style="ellipse;whiteSpace=wrap;html=1;fillColor=#f8cecc;strokeColor=#b85450;gradientColor=#ea6b66;" vertex="1" parent="PVWQb8UEWzLVWvOHxIEB-327">
          <mxGeometry x="30" width="120" height="60.9375" as="geometry" />
        </mxCell>
        <mxCell id="PVWQb8UEWzLVWvOHxIEB-311" value="User Profile" style="text;html=1;strokeColor=none;fillColor=none;align=center;verticalAlign=middle;whiteSpace=wrap;rounded=0;dashed=1;fontSize=15;fontFamily=Comic Sans MS;" vertex="1" parent="PVWQb8UEWzLVWvOHxIEB-327">
          <mxGeometry x="72.06" y="24.000781250000003" width="35.87" height="12.92890625" as="geometry" />
        </mxCell>
        <mxCell id="PVWQb8UEWzLVWvOHxIEB-76" value="" style="line;strokeWidth=2;direction=south;html=1;perimeter=backbonePerimeter;points=[];outlineConnect=0;dashed=1;fillColor=#FF9999;align=left;dashPattern=1 4;" vertex="1" parent="PVWQb8UEWzLVWvOHxIEB-339">
          <mxGeometry x="74" y="137.109375" width="21" height="137.109375" as="geometry" />
        </mxCell>
        <mxCell id="PVWQb8UEWzLVWvOHxIEB-332" value="" style="ellipse;whiteSpace=wrap;html=1;fillColor=#f8cecc;strokeColor=#b85450;gradientColor=#ea6b66;" vertex="1" parent="PVWQb8UEWzLVWvOHxIEB-339">
          <mxGeometry x="30" y="370.703125" width="120" height="60.9375" as="geometry" />
        </mxCell>
        <mxCell id="PVWQb8UEWzLVWvOHxIEB-333" value="Widget Builder&lt;br&gt;" style="text;html=1;strokeColor=none;fillColor=none;align=center;verticalAlign=middle;whiteSpace=wrap;rounded=0;fontFamily=Comic Sans MS;fontSize=16;" vertex="1" parent="PVWQb8UEWzLVWvOHxIEB-339">
          <mxGeometry x="70" y="391.015625" width="40" height="20.3125" as="geometry" />
        </mxCell>
        <mxCell id="PVWQb8UEWzLVWvOHxIEB-336" value="&lt;font style=&quot;font-size: 20px&quot;&gt;External API&lt;/font&gt;" style="text;html=1;strokeColor=none;fillColor=none;align=center;verticalAlign=middle;whiteSpace=wrap;rounded=0;fontFamily=Comic Sans MS;fontSize=17;" vertex="1" parent="PVWQb8UEWzLVWvOHxIEB-339">
          <mxGeometry x="64.5" y="15.234375" width="40" height="20.3125" as="geometry" />
        </mxCell>
        <mxCell id="PVWQb8UEWzLVWvOHxIEB-6" value="" style="ellipse;whiteSpace=wrap;html=1;fillColor=#f8cecc;strokeColor=#b85450;gradientColor=#ea6b66;" vertex="1" parent="PVWQb8UEWzLVWvOHxIEB-339">
          <mxGeometry x="30" y="70.07124999999999" width="120" height="67.04" as="geometry" />
        </mxCell>
        <mxCell id="PVWQb8UEWzLVWvOHxIEB-329" value="" style="group" vertex="1" connectable="0" parent="PVWQb8UEWzLVWvOHxIEB-339">
          <mxGeometry x="26" y="52.00125" width="124" height="90" as="geometry" />
        </mxCell>
        <mxCell id="PVWQb8UEWzLVWvOHxIEB-23" value="Other" style="text;html=1;strokeColor=none;fillColor=none;align=center;verticalAlign=middle;whiteSpace=wrap;rounded=0;dashed=1;fontSize=15;fontFamily=Comic Sans MS;" vertex="1" parent="PVWQb8UEWzLVWvOHxIEB-329">
          <mxGeometry x="40" y="35.546875" width="40" height="20.3125" as="geometry" />
        </mxCell>
        <mxCell id="PVWQb8UEWzLVWvOHxIEB-340" value="" style="group;fillColor=#ffff88;dashed=1;strokeWidth=3;strokeColor=#99CCFF;" vertex="1" connectable="0" parent="1">
          <mxGeometry x="131" y="220" width="278" height="650" as="geometry" />
        </mxCell>
        <mxCell id="PVWQb8UEWzLVWvOHxIEB-48" value="" style="rounded=0;whiteSpace=wrap;html=1;dashed=1;strokeWidth=2;strokeColor=#CCCCFF;" vertex="1" parent="PVWQb8UEWzLVWvOHxIEB-340">
          <mxGeometry width="278" height="650" as="geometry" />
        </mxCell>
        <mxCell id="PVWQb8UEWzLVWvOHxIEB-49" value="&lt;font face=&quot;Comic Sans MS&quot; style=&quot;font-size: 20px&quot;&gt;Machine Learning&lt;/font&gt;" style="text;html=1;strokeColor=none;fillColor=none;align=center;verticalAlign=middle;whiteSpace=wrap;rounded=0;dashed=1;fontStyle=1;fontSize=15;" vertex="1" parent="PVWQb8UEWzLVWvOHxIEB-340">
          <mxGeometry x="30" y="20.3125" width="40" height="20.3125" as="geometry" />
        </mxCell>
        <mxCell id="PVWQb8UEWzLVWvOHxIEB-349" value="" style="group" vertex="1" connectable="0" parent="PVWQb8UEWzLVWvOHxIEB-340">
          <mxGeometry x="34" y="81.25" width="216" height="105.37109375" as="geometry" />
        </mxCell>
        <mxCell id="PVWQb8UEWzLVWvOHxIEB-344" value="" style="rounded=0;whiteSpace=wrap;html=1;strokeColor=#36393d;strokeWidth=2;fillColor=#eeeeee;fontFamily=Comic Sans MS;fontSize=16;align=left;" vertex="1" parent="PVWQb8UEWzLVWvOHxIEB-349">
          <mxGeometry width="216" height="105.37109375" as="geometry" />
        </mxCell>
        <mxCell id="PVWQb8UEWzLVWvOHxIEB-345" value="Storage" style="text;html=1;strokeColor=none;fillColor=none;align=center;verticalAlign=middle;whiteSpace=wrap;rounded=0;fontFamily=Comic Sans MS;fontSize=16;fontStyle=1" vertex="1" parent="PVWQb8UEWzLVWvOHxIEB-349">
          <mxGeometry x="20" y="10.15625" width="40" height="20.3125" as="geometry" />
        </mxCell>
        <mxCell id="PVWQb8UEWzLVWvOHxIEB-348" value="" style="group" vertex="1" connectable="0" parent="PVWQb8UEWzLVWvOHxIEB-349">
          <mxGeometry x="60" y="30.46875" width="90" height="63.4765625" as="geometry" />
        </mxCell>
        <mxCell id="PVWQb8UEWzLVWvOHxIEB-177" value="" style="shape=datastore;whiteSpace=wrap;html=1;strokeColor=#6c8ebf;strokeWidth=1;fillColor=#dae8fc;gradientColor=#7ea6e0;fontSize=15;align=left;" vertex="1" parent="PVWQb8UEWzLVWvOHxIEB-348">
          <mxGeometry width="90" height="63.4765625" as="geometry" />
        </mxCell>
        <mxCell id="PVWQb8UEWzLVWvOHxIEB-178" value="&lt;i&gt;Repo&lt;/i&gt;" style="text;html=1;strokeColor=#6c8ebf;fillColor=#dae8fc;align=center;verticalAlign=middle;whiteSpace=wrap;rounded=0;fontSize=15;gradientColor=#7ea6e0;fontFamily=Comic Sans MS;" vertex="1" parent="PVWQb8UEWzLVWvOHxIEB-348">
          <mxGeometry x="25" y="31.73828125" width="40" height="20.3125" as="geometry" />
        </mxCell>
        <mxCell id="PVWQb8UEWzLVWvOHxIEB-351" value="" style="rounded=0;whiteSpace=wrap;html=1;strokeColor=#82b366;strokeWidth=3;fontFamily=Comic Sans MS;fontSize=16;align=left;fillColor=#d5e8d4;" vertex="1" parent="PVWQb8UEWzLVWvOHxIEB-340">
          <mxGeometry x="30" y="450" width="220" height="160" as="geometry" />
        </mxCell>
        <mxCell id="PVWQb8UEWzLVWvOHxIEB-352" value="&lt;b&gt;&lt;font style=&quot;font-size: 15px&quot;&gt;ML Api&lt;/font&gt;&lt;/b&gt;" style="text;html=1;strokeColor=none;fillColor=none;align=center;verticalAlign=middle;whiteSpace=wrap;rounded=0;fontFamily=Comic Sans MS;fontSize=16;" vertex="1" parent="PVWQb8UEWzLVWvOHxIEB-340">
          <mxGeometry x="34" y="461.24999999999994" width="40" height="20" as="geometry" />
        </mxCell>
        <mxCell id="PVWQb8UEWzLVWvOHxIEB-353" style="edgeStyle=orthogonalEdgeStyle;shape=flexArrow;rounded=1;jumpSize=8;orthogonalLoop=1;jettySize=auto;html=1;exitX=0.5;exitY=1;exitDx=0;exitDy=0;startArrow=classic;startFill=1;endArrow=classic;endFill=1;strokeWidth=2;fontFamily=Comic Sans MS;fontSize=16;" edge="1" parent="PVWQb8UEWzLVWvOHxIEB-340" source="PVWQb8UEWzLVWvOHxIEB-352" target="PVWQb8UEWzLVWvOHxIEB-352">
          <mxGeometry relative="1" as="geometry" />
        </mxCell>
        <mxCell id="PVWQb8UEWzLVWvOHxIEB-137" value="" style="group;strokeWidth=3;" vertex="1" connectable="0" parent="PVWQb8UEWzLVWvOHxIEB-340">
          <mxGeometry x="19" y="260" width="240" height="136.56" as="geometry" />
        </mxCell>
        <mxCell id="PVWQb8UEWzLVWvOHxIEB-135" value="Services" style="shape=module;align=left;spacingLeft=20;align=center;verticalAlign=top;strokeColor=#617FAB;strokeWidth=1;fillColor=#ffffff;gradientColor=#FFB570;fontSize=16;fontFamily=Comic Sans MS;fontStyle=1" vertex="1" parent="PVWQb8UEWzLVWvOHxIEB-137">
          <mxGeometry width="240" height="136.56" as="geometry" />
        </mxCell>
        <mxCell id="PVWQb8UEWzLVWvOHxIEB-136" value="&lt;font style=&quot;font-size: 12px&quot; face=&quot;Comic Sans MS&quot;&gt;UIWI M.A.B. Alg.&lt;/font&gt;" style="shape=folder;fontStyle=1;spacingTop=10;tabWidth=40;tabHeight=14;tabPosition=left;html=1;strokeColor=#996185;strokeWidth=1;fillColor=#e6d0de;gradientColor=#d5739d;fontSize=15;align=center;" vertex="1" parent="PVWQb8UEWzLVWvOHxIEB-137">
          <mxGeometry x="60" y="37.24363636363636" width="140" height="62.07272727272728" as="geometry" />
        </mxCell>
        <mxCell id="PVWQb8UEWzLVWvOHxIEB-350" value="" style="group" vertex="1" connectable="0" parent="PVWQb8UEWzLVWvOHxIEB-340">
          <mxGeometry x="70" y="510.44500000000016" width="140" height="81.25" as="geometry" />
        </mxCell>
        <mxCell id="PVWQb8UEWzLVWvOHxIEB-356" value="" style="group" vertex="1" connectable="0" parent="PVWQb8UEWzLVWvOHxIEB-350">
          <mxGeometry width="140" height="81.25" as="geometry" />
        </mxCell>
        <mxCell id="PVWQb8UEWzLVWvOHxIEB-361" value="" style="group" vertex="1" connectable="0" parent="PVWQb8UEWzLVWvOHxIEB-356">
          <mxGeometry width="140" height="81.25" as="geometry" />
        </mxCell>
        <mxCell id="PVWQb8UEWzLVWvOHxIEB-123" value="" style="ellipse;whiteSpace=wrap;html=1;strokeColor=#d6b656;strokeWidth=1;fillColor=#fff2cc;fontSize=15;align=left;gradientColor=#ffd966;" vertex="1" parent="PVWQb8UEWzLVWvOHxIEB-361">
          <mxGeometry width="140" height="81.25" as="geometry" />
        </mxCell>
        <mxCell id="PVWQb8UEWzLVWvOHxIEB-118" value="&lt;font face=&quot;Comic Sans MS&quot; style=&quot;font-size: 15px&quot;&gt;UIWI&lt;/font&gt;" style="text;html=1;strokeColor=#d6b656;fillColor=#fff2cc;align=center;verticalAlign=middle;whiteSpace=wrap;rounded=0;dashed=1;fontSize=14;fontStyle=1;gradientColor=#ffd966;" vertex="1" parent="PVWQb8UEWzLVWvOHxIEB-361">
          <mxGeometry x="40" y="25.3925" width="40" height="30.46875" as="geometry" />
        </mxCell>
        <mxCell id="PVWQb8UEWzLVWvOHxIEB-385" value="" style="edgeStyle=elbowEdgeStyle;elbow=horizontal;endArrow=openThin;html=1;strokeWidth=7;fontFamily=Comic Sans MS;fontSize=17;fontColor=#3B6FFF;startArrow=openThin;startFill=0;exitX=0.5;exitY=0;exitDx=0;exitDy=0;fillColor=#ffe6cc;endFill=0;strokeColor=#C48D00;" edge="1" parent="PVWQb8UEWzLVWvOHxIEB-340" source="PVWQb8UEWzLVWvOHxIEB-135">
          <mxGeometry width="50" height="50" relative="1" as="geometry">
            <mxPoint x="138.28999999999996" y="236.62" as="sourcePoint" />
            <mxPoint x="138.28999999999996" y="186.62" as="targetPoint" />
            <Array as="points" />
          </mxGeometry>
        </mxCell>
        <mxCell id="PVWQb8UEWzLVWvOHxIEB-387" value="" style="edgeStyle=elbowEdgeStyle;elbow=horizontal;endArrow=openThin;html=1;strokeWidth=7;fontFamily=Comic Sans MS;fontSize=17;fontColor=#3B6FFF;startArrow=openThin;startFill=0;fillColor=#ffe6cc;endFill=0;strokeColor=#C48D00;" edge="1" parent="PVWQb8UEWzLVWvOHxIEB-340">
          <mxGeometry width="50" height="50" relative="1" as="geometry">
            <mxPoint x="141.28999999999996" y="446.55999999999995" as="sourcePoint" />
            <mxPoint x="141.28999999999996" y="396.55999999999995" as="targetPoint" />
            <Array as="points" />
          </mxGeometry>
        </mxCell>
        <mxCell id="PVWQb8UEWzLVWvOHxIEB-141" value="" style="group;" vertex="1" connectable="0" parent="1">
          <mxGeometry x="780" y="720" width="80" height="70" as="geometry" />
        </mxCell>
        <mxCell id="PVWQb8UEWzLVWvOHxIEB-143" value="" style="group" vertex="1" connectable="0" parent="PVWQb8UEWzLVWvOHxIEB-141">
          <mxGeometry width="80" height="68.44444444444444" as="geometry" />
        </mxCell>
        <mxCell id="PVWQb8UEWzLVWvOHxIEB-37" value="&lt;b style=&quot;font-size: 15px;&quot;&gt;&lt;font style=&quot;font-size: 15px;&quot;&gt;Bussiness Logic&lt;/font&gt;&lt;/b&gt;" style="text;html=1;strokeColor=none;fillColor=none;align=center;verticalAlign=middle;whiteSpace=wrap;rounded=0;dashed=1;fontSize=15;" vertex="1" parent="1">
          <mxGeometry x="550.5128205128206" y="420" width="41.02564102564102" height="20" as="geometry" />
        </mxCell>
        <mxCell id="PVWQb8UEWzLVWvOHxIEB-36" value="" style="rounded=0;whiteSpace=wrap;html=1;dashed=1;strokeWidth=2;strokeColor=#3B6FFF;fontColor=#3B6FFF;" vertex="1" parent="1">
          <mxGeometry x="509.49" y="410" width="420.51" height="440" as="geometry" />
        </mxCell>
        <mxCell id="PVWQb8UEWzLVWvOHxIEB-299" value="&lt;b style=&quot;font-size: 20px&quot;&gt;&lt;font style=&quot;font-size: 20px&quot;&gt;UIWI&lt;br&gt;Services&lt;br style=&quot;font-size: 17px&quot;&gt;&lt;/font&gt;&lt;/b&gt;" style="text;html=1;strokeColor=none;fillColor=none;align=center;verticalAlign=middle;whiteSpace=wrap;rounded=0;dashed=1;fontSize=17;fontFamily=Comic Sans MS;" vertex="1" parent="1">
          <mxGeometry x="539.9992307692307" y="430" width="41.02564102564102" height="20" as="geometry" />
        </mxCell>
        <mxCell id="PVWQb8UEWzLVWvOHxIEB-125" value="Services" style="shape=module;align=left;spacingLeft=20;align=center;verticalAlign=top;strokeColor=#617FAB;strokeWidth=1;fillColor=#ffffff;gradientColor=#FFB570;fontSize=15;" vertex="1" parent="1">
          <mxGeometry x="591.5384615384615" y="490" width="256.4102564102564" height="180" as="geometry" />
        </mxCell>
        <mxCell id="PVWQb8UEWzLVWvOHxIEB-99" value="" style="group;" vertex="1" connectable="0" parent="1">
          <mxGeometry x="632.5641025641025" y="526.25" width="174.35897435897434" height="135" as="geometry" />
        </mxCell>
        <mxCell id="PVWQb8UEWzLVWvOHxIEB-40" value="service 1" style="shape=folder;fontStyle=1;spacingTop=10;tabWidth=40;tabHeight=14;tabPosition=left;html=1;dashed=1;align=left;fillColor=#e6d0de;strokeColor=#996185;gradientColor=#d5739d;" vertex="1" parent="PVWQb8UEWzLVWvOHxIEB-99">
          <mxGeometry width="81.36752136752138" height="50" as="geometry" />
        </mxCell>
        <mxCell id="PVWQb8UEWzLVWvOHxIEB-97" value="service 2" style="shape=folder;fontStyle=1;spacingTop=10;tabWidth=40;tabHeight=14;tabPosition=left;html=1;dashed=1;align=left;gradientColor=#d5739d;fillColor=#e6d0de;strokeColor=#996185;" vertex="1" parent="PVWQb8UEWzLVWvOHxIEB-99">
          <mxGeometry x="92.99145299145297" y="17" width="81.36752136752138" height="50" as="geometry" />
        </mxCell>
        <mxCell id="PVWQb8UEWzLVWvOHxIEB-98" value="service n" style="shape=folder;fontStyle=1;spacingTop=10;tabWidth=40;tabHeight=14;tabPosition=left;html=1;dashed=1;align=left;gradientColor=#d5739d;fillColor=#e6d0de;strokeColor=#996185;" vertex="1" parent="PVWQb8UEWzLVWvOHxIEB-99">
          <mxGeometry x="46.49572649572649" y="85" width="81.36752136752138" height="50" as="geometry" />
        </mxCell>
        <mxCell id="PVWQb8UEWzLVWvOHxIEB-243" value="" style="group;strokeWidth=4;" vertex="1" connectable="0" parent="1">
          <mxGeometry x="545.38" y="463.75" width="354.62" height="385" as="geometry" />
        </mxCell>
        <mxCell id="PVWQb8UEWzLVWvOHxIEB-227" value="" style="group" vertex="1" connectable="0" parent="PVWQb8UEWzLVWvOHxIEB-243">
          <mxGeometry width="354.62" height="385" as="geometry" />
        </mxCell>
        <mxCell id="PVWQb8UEWzLVWvOHxIEB-228" value="" style="rounded=0;whiteSpace=wrap;html=1;fillColor=#dae8fc;strokeColor=#6c8ebf;align=left;" vertex="1" parent="PVWQb8UEWzLVWvOHxIEB-227">
          <mxGeometry x="19.208583333333337" width="316.9416250000001" height="370" as="geometry" />
        </mxCell>
        <mxCell id="PVWQb8UEWzLVWvOHxIEB-229" value="&lt;span style=&quot;font-weight: normal&quot;&gt;&lt;font style=&quot;font-size: 13px&quot;&gt;Misc&lt;/font&gt;&lt;/span&gt;" style="swimlane;html=1;horizontal=0;startSize=20;strokeColor=#617FAB;strokeWidth=1;fillColor=#ffffff;gradientColor=#FFB570;fontSize=15;align=left;" vertex="1" parent="PVWQb8UEWzLVWvOHxIEB-227">
          <mxGeometry x="54.17805555555557" y="219.99999999999997" width="236.41333333333336" height="142.5" as="geometry" />
        </mxCell>
        <mxCell id="PVWQb8UEWzLVWvOHxIEB-230" value="" style="group;fontFamily=Comic Sans MS;" vertex="1" connectable="0" parent="PVWQb8UEWzLVWvOHxIEB-227">
          <mxGeometry x="96.53544444444452" y="231.72" width="184.2053888888889" height="117.49999999999999" as="geometry" />
        </mxCell>
        <mxCell id="PVWQb8UEWzLVWvOHxIEB-231" value="" style="shape=mxgraph.bpmn.loop;html=1;outlineConnect=0;strokeColor=#617FAB;strokeWidth=1;fillColor=#ffffff;gradientColor=#FFB570;fontSize=15;align=left;" vertex="1" parent="PVWQb8UEWzLVWvOHxIEB-230">
          <mxGeometry y="50" width="23.641333333333336" height="20" as="geometry" />
        </mxCell>
        <mxCell id="PVWQb8UEWzLVWvOHxIEB-232" value="" style="group;fontFamily=Comic Sans MS;" vertex="1" connectable="0" parent="PVWQb8UEWzLVWvOHxIEB-230">
          <mxGeometry x="1.1426644444444343" width="183.06272444444446" height="117.49999999999999" as="geometry" />
        </mxCell>
        <mxCell id="PVWQb8UEWzLVWvOHxIEB-233" value="" style="shape=mxgraph.bpmn.script_task;html=1;outlineConnect=0;strokeColor=#617FAB;strokeWidth=1;fillColor=#ffffff;gradientColor=#FFB570;fontSize=15;align=left;" vertex="1" parent="PVWQb8UEWzLVWvOHxIEB-232">
          <mxGeometry x="4.449405528717132" y="77.5" width="12.458335480407944" height="20" as="geometry" />
        </mxCell>
        <mxCell id="PVWQb8UEWzLVWvOHxIEB-234" value="" style="group" vertex="1" connectable="0" parent="PVWQb8UEWzLVWvOHxIEB-232">
          <mxGeometry width="183.06272444444446" height="117.49999999999999" as="geometry" />
        </mxCell>
        <mxCell id="PVWQb8UEWzLVWvOHxIEB-235" value="" style="shape=mxgraph.bpmn.service_task;html=1;outlineConnect=0;strokeColor=#617FAB;strokeWidth=1;fillColor=#ffffff;gradientColor=#FFB570;fontSize=15;align=left;" vertex="1" parent="PVWQb8UEWzLVWvOHxIEB-234">
          <mxGeometry y="7.499999999999999" width="21.357146537842194" height="29.999999999999996" as="geometry" />
        </mxCell>
        <mxCell id="PVWQb8UEWzLVWvOHxIEB-236" value="&lt;font style=&quot;font-size: 14px&quot; face=&quot;Comic Sans MS&quot;&gt;Security&lt;br&gt;&lt;br&gt;Testing&lt;br&gt;&lt;/font&gt;&lt;div style=&quot;font-size: 14px&quot;&gt;&lt;span&gt;&lt;font style=&quot;font-size: 14px&quot; face=&quot;Comic Sans MS&quot;&gt;&lt;br&gt;&lt;/font&gt;&lt;/span&gt;&lt;/div&gt;&lt;div style=&quot;font-size: 14px&quot;&gt;&lt;font style=&quot;font-size: 14px&quot; face=&quot;Comic Sans MS&quot;&gt;Documenting&lt;/font&gt;&lt;/div&gt;" style="text;html=1;strokeColor=none;fillColor=none;align=left;verticalAlign=middle;whiteSpace=wrap;rounded=0;fontSize=15;" vertex="1" parent="PVWQb8UEWzLVWvOHxIEB-234">
          <mxGeometry x="31.782936468062275" width="151.2797879763822" height="117.49999999999999" as="geometry" />
        </mxCell>
        <mxCell id="PVWQb8UEWzLVWvOHxIEB-237" value="" style="group" vertex="1" connectable="0" parent="PVWQb8UEWzLVWvOHxIEB-243">
          <mxGeometry x="44.3275" y="26.25" width="246.26388888888894" height="180" as="geometry" />
        </mxCell>
        <mxCell id="PVWQb8UEWzLVWvOHxIEB-238" value="Services" style="shape=module;align=left;spacingLeft=20;align=center;verticalAlign=top;strokeColor=#617FAB;strokeWidth=1;fillColor=#ffffff;gradientColor=#FFB570;fontSize=15;" vertex="1" parent="PVWQb8UEWzLVWvOHxIEB-237">
          <mxGeometry width="246.26388888888894" height="180" as="geometry" />
        </mxCell>
        <mxCell id="PVWQb8UEWzLVWvOHxIEB-239" value="" style="group;" vertex="1" connectable="0" parent="PVWQb8UEWzLVWvOHxIEB-237">
          <mxGeometry x="39.40222222222223" y="36.24999999999999" width="167.45944444444447" height="135" as="geometry" />
        </mxCell>
        <mxCell id="PVWQb8UEWzLVWvOHxIEB-240" value="&lt;font face=&quot;Comic Sans MS&quot;&gt;service 1&lt;/font&gt;" style="shape=folder;fontStyle=1;spacingTop=10;tabWidth=40;tabHeight=14;tabPosition=left;html=1;dashed=1;align=left;fillColor=#e6d0de;strokeColor=#996185;gradientColor=#d5739d;" vertex="1" parent="PVWQb8UEWzLVWvOHxIEB-239">
          <mxGeometry width="78.14774074074077" height="50" as="geometry" />
        </mxCell>
        <mxCell id="PVWQb8UEWzLVWvOHxIEB-241" value="&lt;font face=&quot;Comic Sans MS&quot;&gt;service 2&lt;/font&gt;" style="shape=folder;fontStyle=1;spacingTop=10;tabWidth=40;tabHeight=14;tabPosition=left;html=1;dashed=1;align=left;gradientColor=#d5739d;fillColor=#e6d0de;strokeColor=#996185;" vertex="1" parent="PVWQb8UEWzLVWvOHxIEB-239">
          <mxGeometry x="89.31170370370371" y="17" width="78.14774074074077" height="50" as="geometry" />
        </mxCell>
        <mxCell id="PVWQb8UEWzLVWvOHxIEB-242" value="&lt;font face=&quot;Comic Sans MS&quot;&gt;service n&lt;/font&gt;" style="shape=folder;fontStyle=1;spacingTop=10;tabWidth=40;tabHeight=14;tabPosition=left;html=1;dashed=1;align=left;gradientColor=#d5739d;fillColor=#e6d0de;strokeColor=#996185;" vertex="1" parent="PVWQb8UEWzLVWvOHxIEB-239">
          <mxGeometry x="44.65585185185186" y="85" width="78.14774074074077" height="50" as="geometry" />
        </mxCell>
        <mxCell id="PVWQb8UEWzLVWvOHxIEB-372" value="&lt;font style=&quot;font-size: 28px&quot;&gt;UIWI&lt;/font&gt;" style="text;html=1;strokeColor=none;fillColor=none;align=center;verticalAlign=middle;whiteSpace=wrap;rounded=0;dashed=1;fontFamily=Comic Sans MS;fontSize=20;fontColor=#FFFFFF;" vertex="1" parent="1">
          <mxGeometry x="31" y="-60" width="100" height="40" as="geometry" />
        </mxCell>
        <mxCell id="PVWQb8UEWzLVWvOHxIEB-373" value="Python" style="text;html=1;strokeColor=none;fillColor=none;align=center;verticalAlign=middle;whiteSpace=wrap;rounded=0;dashed=1;fontFamily=Comic Sans MS;fontSize=17;fontColor=#3B6FFF;" vertex="1" parent="1">
          <mxGeometry x="131" y="160" width="40" height="20" as="geometry" />
        </mxCell>
        <mxCell id="PVWQb8UEWzLVWvOHxIEB-374" value="Java" style="text;html=1;strokeColor=none;fillColor=none;align=center;verticalAlign=middle;whiteSpace=wrap;rounded=0;dashed=1;fontFamily=Comic Sans MS;fontSize=17;fontColor=#3B6FFF;" vertex="1" parent="1">
          <mxGeometry x="490" y="160" width="40" height="20" as="geometry" />
        </mxCell>
        <mxCell id="PVWQb8UEWzLVWvOHxIEB-377" value="" style="edgeStyle=segmentEdgeStyle;endArrow=openThin;html=1;strokeWidth=1;fontFamily=Comic Sans MS;fontSize=17;startArrow=openThin;startFill=0;exitX=0.5;exitY=1;exitDx=0;exitDy=0;fillColor=#d5e8d4;endFill=0;fontColor=#009900;strokeColor=#006600;shape=flexArrow;dashed=1;" edge="1" parent="1" source="PVWQb8UEWzLVWvOHxIEB-351" target="PVWQb8UEWzLVWvOHxIEB-1">
          <mxGeometry width="50" height="50" relative="1" as="geometry">
            <mxPoint x="271" y="840" as="sourcePoint" />
            <mxPoint x="1100" y="830" as="targetPoint" />
            <Array as="points">
              <mxPoint x="271" y="940" />
              <mxPoint x="1100" y="940" />
            </Array>
          </mxGeometry>
        </mxCell>
        <mxCell id="PVWQb8UEWzLVWvOHxIEB-383" value="" style="edgeStyle=elbowEdgeStyle;elbow=horizontal;endArrow=openThin;html=1;strokeWidth=8;fontFamily=Comic Sans MS;fontSize=17;fontColor=#3B6FFF;startArrow=openThin;startFill=0;fillColor=#e1d5e7;endFill=0;strokeColor=#4C6385;" edge="1" parent="1">
          <mxGeometry width="50" height="50" relative="1" as="geometry">
            <mxPoint x="721.98" y="410" as="sourcePoint" />
            <mxPoint x="721.98" y="340" as="targetPoint" />
            <Array as="points" />
          </mxGeometry>
        </mxCell>
        <mxCell id="PVWQb8UEWzLVWvOHxIEB-388" value="" style="edgeStyle=elbowEdgeStyle;elbow=horizontal;endArrow=classic;html=1;strokeWidth=1;fontFamily=Comic Sans MS;fontSize=17;fontColor=#3B6FFF;startArrow=classic;startFill=1;exitX=0.071;exitY=0.615;exitDx=0;exitDy=0;exitPerimeter=0;fillColor=#f5f5f5;strokeColor=#FF3333;dashed=1;shape=flexArrow;" edge="1" parent="1" source="PVWQb8UEWzLVWvOHxIEB-3">
          <mxGeometry width="50" height="50" relative="1" as="geometry">
            <mxPoint x="1290" y="600" as="sourcePoint" />
            <mxPoint x="1170" y="600" as="targetPoint" />
            <Array as="points" />
          </mxGeometry>
        </mxCell>
        <mxCell id="PVWQb8UEWzLVWvOHxIEB-389" value="" style="edgeStyle=elbowEdgeStyle;elbow=horizontal;endArrow=classic;html=1;strokeWidth=1;fontFamily=Comic Sans MS;fontSize=17;fontColor=#3B6FFF;startArrow=classic;startFill=1;exitX=0.071;exitY=0.615;exitDx=0;exitDy=0;exitPerimeter=0;fillColor=#f5f5f5;strokeColor=#FF3333;dashed=1;shape=flexArrow;" edge="1" parent="1">
          <mxGeometry width="50" height="50" relative="1" as="geometry">
            <mxPoint x="1529.94" y="524.29" as="sourcePoint" />
            <mxPoint x="1170" y="524.54" as="targetPoint" />
            <Array as="points" />
          </mxGeometry>
        </mxCell>
        <mxCell id="PVWQb8UEWzLVWvOHxIEB-390" value="" style="edgeStyle=elbowEdgeStyle;elbow=horizontal;endArrow=classic;html=1;strokeWidth=1;fontFamily=Comic Sans MS;fontSize=17;fontColor=#3B6FFF;startArrow=classic;startFill=1;exitX=0.071;exitY=0.615;exitDx=0;exitDy=0;exitPerimeter=0;fillColor=#f5f5f5;strokeColor=#FF3333;dashed=1;shape=flexArrow;" edge="1" parent="1">
          <mxGeometry width="50" height="50" relative="1" as="geometry">
            <mxPoint x="1529.94" y="300" as="sourcePoint" />
            <mxPoint x="1170" y="300.25" as="targetPoint" />
            <Array as="points" />
          </mxGeometry>
        </mxCell>
        <mxCell id="PVWQb8UEWzLVWvOHxIEB-392" value="" style="edgeStyle=elbowEdgeStyle;elbow=horizontal;endArrow=openThin;html=1;strokeWidth=8;fontFamily=Comic Sans MS;fontSize=17;fontColor=#3B6FFF;startArrow=openThin;startFill=0;fillColor=#dae8fc;endFill=0;entryX=1;entryY=0.523;entryDx=0;entryDy=0;entryPerimeter=0;strokeColor=#4C6385;" edge="1" parent="1" target="PVWQb8UEWzLVWvOHxIEB-36">
          <mxGeometry width="50" height="50" relative="1" as="geometry">
            <mxPoint x="1000" y="640" as="sourcePoint" />
            <mxPoint x="940" y="640" as="targetPoint" />
            <Array as="points" />
          </mxGeometry>
        </mxCell>
        <mxCell id="PVWQb8UEWzLVWvOHxIEB-394" value="" style="edgeStyle=elbowEdgeStyle;elbow=horizontal;endArrow=openThin;html=1;strokeWidth=6;fontFamily=Comic Sans MS;fontSize=17;fontColor=#3B6FFF;startArrow=openThin;startFill=0;endFill=0;fillColor=#dae8fc;strokeColor=#B4C257;" edge="1" parent="1">
          <mxGeometry width="50" height="50" relative="1" as="geometry">
            <mxPoint x="827" y="150" as="sourcePoint" />
            <mxPoint x="827" y="100" as="targetPoint" />
            <Array as="points" />
          </mxGeometry>
        </mxCell>
        <mxCell id="PVWQb8UEWzLVWvOHxIEB-395" value="" style="edgeStyle=elbowEdgeStyle;elbow=horizontal;endArrow=openThin;html=1;strokeWidth=6;fontFamily=Comic Sans MS;fontSize=17;fontColor=#3B6FFF;startArrow=openThin;startFill=0;endFill=0;fillColor=#dae8fc;strokeColor=#B4C257;" edge="1" parent="1">
          <mxGeometry width="50" height="50" relative="1" as="geometry">
            <mxPoint x="299.99999999999966" y="150" as="sourcePoint" />
            <mxPoint x="299.99999999999966" y="100" as="targetPoint" />
            <Array as="points" />
          </mxGeometry>
        </mxCell>
      </root>
    </mxGraphModel>
  </diagram>
</mxfile>
